<svg xmlns="http://www.w3.org/2000/svg" width="512" height="512" viewBox="0 0 36 36" fill="none">
  <g transform="translate(18,17)">
    <path d="M0,-13 C-4,-13.5 -13,-12.5 -19,-11 L-19,11 C-13,10 -4,9.5 0,10 Z" fill="none" stroke="#1a1a18" stroke-width="1.1" stroke-linejoin="round"/>
    <path d="M0,-13 C4,-13.5 13,-12.5 19,-11 L19,11 C13,10 4,9.5 0,10 Z" fill="none" stroke="#1a1a18" stroke-width="1.1" stroke-linejoin="round"/>
    <line x1="0" y1="-13" x2="0" y2="10" stroke="#1a1a18" stroke-width="1.1"/>
    <line x1="-16" y1="-5" x2="-2" y2="-5.5" stroke="#1a1a18" stroke-width="0.7" stroke-linecap="round"/>
    <line x1="-16" y1="0" x2="-2" y2="-0.5" stroke="#1a1a18" stroke-width="0.7" stroke-linecap="round"/>
    <line x1="-16" y1="5" x2="-2" y2="4.5" stroke="#1a1a18" stroke-width="0.7" stroke-linecap="round"/>
    <line x1="2" y1="-5.5" x2="16" y2="-5" stroke="#1a1a18" stroke-width="0.7" stroke-linecap="round"/>
    <line x1="2" y1="-0.5" x2="16" y2="0" stroke="#1a1a18" stroke-width="0.7" stroke-linecap="round"/>
    <line x1="2" y1="4.5" x2="16" y2="5" stroke="#1a1a18" stroke-width="0.7" stroke-linecap="round"/>
    <circle cx="0" cy="15" r="1.5" fill="#1a1a18"/>
    <line x1="-6" y1="15" x2="-3" y2="15" stroke="#1a1a18" stroke-width="0.8" stroke-linecap="round"/>
    <line x1="3" y1="15" x2="6" y2="15" stroke="#1a1a18" stroke-width="0.8" stroke-linecap="round"/>
  </g>
</svg>
